<svg width="81" height="24" viewBox="0 0 81 24" fill="none" xmlns="http://www.w3.org/2000/svg">
<g clip-path="url(#clip0_2719_2258)">
<path d="M7.34027 5.41103H12.1546C13.5718 5.41103 14.6757 5.69448 15.4449 6.26279C16.2226 6.83111 16.6128 7.64584 16.6128 8.71269C16.6128 9.32231 16.4734 9.85075 16.1941 10.2937C15.9149 10.7424 15.5033 11.0971 14.9563 11.3606C15.7112 11.6113 16.2895 12.0086 16.694 12.5528C17.0957 13.0969 17.2951 13.7578 17.2951 14.5326C17.2951 15.2975 17.1 15.9555 16.7111 16.4982C16.3223 17.048 15.7668 17.4725 15.0446 17.7716C14.3239 18.0707 13.4636 18.2203 12.4523 18.2203H7.33884L7.34027 5.41103ZM0.930664 23.2155H23.7204V0.425781H0.930664V23.2155ZM11.9125 7.54756C13.2955 7.54756 13.992 8.05606 13.992 9.07162C13.992 9.59721 13.8154 10.0074 13.4607 10.2994C13.1061 10.5928 12.5919 10.7381 11.9224 10.7381H9.95681V7.54756H11.9125ZM12.2429 12.7465H9.93545V16.2077H12.2002C12.9779 16.2077 13.5775 16.0609 13.9949 15.7689C14.4136 15.4755 14.623 15.0553 14.623 14.5055C14.623 13.3347 13.8268 12.7536 12.2301 12.7536L12.2429 12.7465Z" fill="#092347"/>
<path d="M35.8276 5.41103H40.6419C42.0591 5.41103 43.163 5.69448 43.9322 6.26279C44.7099 6.83111 45.1001 7.64584 45.1001 8.71269C45.1001 9.32231 44.9607 9.85075 44.6814 10.2937C44.4022 10.7424 43.9891 11.0971 43.4436 11.3606C44.1985 11.6113 44.7768 12.0086 45.1813 12.5528C45.583 13.0969 45.7824 13.7578 45.7824 14.5326C45.7824 15.2975 45.5873 15.9555 45.1984 16.4982C44.8096 17.048 44.2541 17.4725 43.5319 17.7716C42.8112 18.0707 41.9509 18.2203 40.9396 18.2203H35.8261L35.8276 5.41103ZM29.418 23.2155H52.2077V0.425781H29.418V23.2155ZM40.3998 7.54756C41.7828 7.54756 42.4793 8.05606 42.4793 9.07162C42.4793 9.59721 42.3027 10.0074 41.948 10.2994C41.5934 10.5928 41.0792 10.7381 40.4097 10.7381H38.4441V7.54756H40.3998ZM40.7302 12.7465H38.4228V16.2077H40.6875C41.4652 16.2077 42.0648 16.0609 42.4822 15.7689C42.9009 15.4755 43.1103 15.0553 43.1103 14.5055C43.1103 13.3347 42.3141 12.7536 40.7174 12.7536L40.7302 12.7465Z" fill="#092347"/>
<path d="M72.4327 18.0889C73.1321 17.9194 73.7474 17.6873 74.2844 17.3953V14.9596C73.1634 15.6504 71.9342 15.9966 70.6096 15.9966C69.7407 15.9966 69 15.8328 68.3876 15.5052C67.7779 15.1776 67.3136 14.7004 66.9945 14.0666C66.6741 13.4398 66.5145 12.6807 66.5145 11.7876C66.5145 10.8974 66.6798 10.1353 67.0116 9.52286C67.3435 8.90184 67.8192 8.42753 68.436 8.09993C69.057 7.77233 69.8076 7.60853 70.6865 7.60853C71.326 7.60853 71.9356 7.69371 72.5096 7.86349C73.0879 8.03299 73.6249 8.28225 74.1192 8.60985V6.11723C73.5765 5.83663 72.9882 5.62298 72.353 5.47627C71.7191 5.32956 71.0468 5.25692 70.3304 5.25692C69.3048 5.25692 68.379 5.40932 67.5529 5.71414C66.7268 6.01895 66.0146 6.45765 65.4306 7.03167C64.8395 7.60568 64.3865 8.29364 64.0732 9.09698C63.7598 9.89889 63.6031 10.792 63.6031 11.789C63.6031 12.8089 63.7541 13.7261 64.0561 14.538C64.3581 15.3528 64.7911 16.0336 65.3594 16.6033C65.9263 17.166 66.6199 17.5961 67.4389 17.8952C68.2594 18.1943 69.1767 18.3439 70.2022 18.3439C70.9742 18.3439 71.712 18.2587 72.4099 18.0889H72.4327ZM80.694 23.1881H57.9043V0.398438H80.694V23.1881Z" fill="#092347"/>
</g>
<defs>
<clipPath id="clip0_2719_2258">
<rect width="80.0409" height="22.9875" fill="white" transform="translate(0.68457 0.279297)"/>
</clipPath>
</defs>
</svg>
