<svg width="62" height="60" viewBox="0 0 62 60" fill="none" xmlns="http://www.w3.org/2000/svg">
<path d="M11.78 18.1611C9.01987 18.1611 6.7793 20.5965 6.7793 23.1618C6.7793 27.0016 10.132 28.2518 11.7556 28.2518C17.2759 28.2599 22.9017 28.2518 28.4219 28.2518L14.2722 18.8349C13.5172 18.3884 12.6567 18.1611 11.78 18.1611Z" fill="#092347"/>
<path d="M15.701 7.11932C14.0774 7.13556 12.4944 7.89865 11.6177 9.23812C9.51512 12.4529 11.6339 15.2536 12.9896 16.1465C17.6007 19.1746 22.5526 22.6734 27.1718 25.7014L20.239 9.92004C19.8412 9.14071 19.273 8.41821 18.5423 7.93924C17.6656 7.37098 16.6752 7.11121 15.701 7.11932Z" fill="#092347"/>
<path d="M50.47 18.1611C53.2302 18.1611 55.4707 20.5965 55.4707 23.1618C55.4707 27.0016 52.118 28.2518 50.4944 28.2518C44.9741 28.2599 39.3484 28.2518 33.8281 28.2518L47.9778 18.8349C48.7328 18.3884 49.5933 18.1611 50.47 18.1611Z" fill="#092347"/>
<path d="M25.2079 0C24.5747 0 23.9496 0.129888 23.3651 0.389664C19.8662 1.98079 20.1585 5.47966 20.8323 6.96525L27.7001 22.9658L30.2816 5.58519C30.3628 4.71656 30.2654 3.79923 29.9082 3.00366C29.0477 1.11217 27.1075 0 25.2079 0Z" fill="#092347"/>
<path d="M36.9869 6.02145e-05C35.0872 -0.00805779 33.285 0.803743 32.2865 2.9956C31.9618 3.70999 31.8482 4.52179 31.8887 5.30924H34.2836C34.9086 5.30924 35.1278 5.57713 35.2983 5.73137C35.485 5.91809 35.4363 5.9668 35.2902 6.0155C34.3729 6.29963 32.4002 7.37933 32.4002 8.93799L32.595 10.1963L34.5109 22.974L41.4436 6.97343C42.1174 5.49595 42.3041 1.98897 38.8053 0.397843C38.2451 0.129948 37.6201 0.00817822 36.9869 6.02145e-05Z" fill="#092347"/>
<path d="M46.55 7.11932C48.1736 7.13556 49.7566 7.89865 50.6334 9.23812C52.736 12.4529 50.609 15.2536 49.2533 16.1465C44.6423 19.1746 39.6416 22.6734 35.0225 25.7014L42.0121 9.92004C42.4098 9.14071 42.9781 8.41821 43.7087 7.93924C44.5774 7.37098 45.5759 7.11121 46.55 7.11932Z" fill="#092347"/>
<path d="M16.5664 31.6595V45.7929H19.6837V36.7982L26.336 45.7848H29.6139L29.6541 45.7361L29.63 31.6514H26.4565V40.5162L19.8926 31.6514H16.5664V31.6595Z" fill="#092347"/>
<path d="M32.2812 31.6582V45.7917H35.3985H40.5806C42.5409 45.7917 45.3127 45.061 45.3127 41.4404C45.3127 39.7924 44.686 38.9076 43.2881 38.2013C44.3004 37.6087 44.8387 37.0323 44.8387 35.636C44.8387 32.9165 42.5409 31.6663 40.5806 31.6663H32.2812V31.6582ZM35.3985 34.467H40.4279C41.151 34.467 41.633 35.0678 41.633 35.7091C41.633 36.3585 40.9742 36.9187 40.4279 36.9187H40.3395L35.3985 36.943V34.467ZM35.3985 39.695H40.1226H40.211C41.3197 39.695 42.091 40.3364 42.091 41.3267C42.091 42.3577 41.2956 42.8692 40.211 42.8692H35.3985V39.695Z" fill="#092347"/>
<path d="M54.5031 31.2773C50.2932 31.2773 46.8867 34.6869 46.8867 38.7134C46.8867 42.0012 49.2729 45.9791 54.5915 46.1495C57.7891 46.1495 59.4682 44.7532 61.0349 43.4219L58.8335 40.8647C58.0944 41.7496 56.343 42.7643 54.8004 42.7643C51.9242 42.7643 50.2611 40.7998 50.2611 38.8027C50.2611 36.5053 52.1571 34.6463 54.5915 34.6463C55.9573 34.6463 57.2106 35.3039 58.1828 36.3349L60.4966 33.9969C59.1549 32.3489 56.7607 31.2773 54.5031 31.2773Z" fill="#092347"/>
<path d="M8.27461 31.2607C4.0647 31.2607 0.658203 34.6703 0.658203 38.6968C0.658203 41.9846 3.04436 45.9625 8.36299 46.1329C11.5606 46.1329 13.2397 44.7366 14.8064 43.4053L12.597 40.8562C11.8579 41.7411 10.1064 42.7558 8.56384 42.7558C5.6876 42.7558 4.02453 40.7913 4.02453 38.7943C4.02453 36.4969 5.92059 34.6378 8.35495 34.6378C9.72076 34.6378 10.9741 35.2954 11.9462 36.3264L14.2601 33.9884C12.9264 32.3404 10.5402 31.2607 8.27461 31.2607Z" fill="#092347"/>
</svg>
