<svg width="92" height="24" viewBox="0 0 92 24" fill="none" xmlns="http://www.w3.org/2000/svg">
<path d="M52.3372 7.75411C52.3372 5.08074 52.3832 2.59174 52.5215 0.287109L45.4694 1.62379V2.26909L46.1608 2.36127C46.6678 2.40737 46.9904 2.59174 47.1748 2.86829C47.3592 3.19094 47.4974 3.65187 47.5896 4.34326C47.6818 5.67994 47.774 8.72205 47.7279 13.5157C47.7279 18.2632 47.6818 21.2592 47.5896 22.4115C50.1247 22.9647 52.1067 23.1951 53.5817 23.1951C56.3472 23.1951 58.5136 22.4115 60.0807 20.7983C61.6479 19.2312 62.4775 17.0187 62.4775 14.2993C62.4775 12.1329 61.8783 10.3353 60.6799 8.90642C59.4815 7.47755 57.9605 6.78616 56.1628 6.78616C54.9644 6.78616 53.7199 7.10881 52.3372 7.75411ZM52.4754 21.9506C52.3833 20.4757 52.2911 16.0508 52.2911 8.81423C52.7059 8.67596 53.259 8.58377 53.9504 8.58377C55.0566 8.58377 55.9324 9.13688 56.5777 10.2892C57.223 11.4415 57.5456 12.8243 57.5456 14.5758C57.5456 16.7422 57.1769 18.4937 56.4394 19.9686C55.7019 21.3975 54.7801 22.135 53.6278 22.135C53.259 22.0428 52.8903 21.9967 52.4754 21.9506ZM19.0122 0.748035H0.575195V1.66989L1.54314 1.76207C2.28062 1.90035 2.78764 2.1769 3.11029 2.59174C3.43293 3.05266 3.61731 3.79014 3.6634 4.80418C4.03214 9.78218 4.03214 14.4375 3.6634 18.7241C3.57121 19.7382 3.38684 20.4757 3.11029 20.9366C2.78764 21.3975 2.28062 21.6741 1.54314 21.7662L0.575195 21.9045V22.8264H12.4671V21.9045L11.2226 21.8123C10.9189 21.7869 10.6235 21.7003 10.3542 21.5577C10.0849 21.4152 9.84717 21.2195 9.65543 20.9827C9.33278 20.5217 9.14841 19.7843 9.10232 18.7702C8.96404 16.9265 8.87186 14.8063 8.87186 12.4555L11.3609 12.5016C12.6975 12.5477 13.6194 13.5618 14.0803 15.5898H15.0022V8.07675H14.0803C13.6194 10.0587 12.7436 11.0728 11.3609 11.1189L8.87186 11.165C8.87186 7.01662 8.96404 4.0667 9.10232 2.26909H12.7436C15.3248 2.26909 17.0763 3.92842 18.0904 7.24709L19.1966 6.92444L19.0122 0.748035ZM16.8459 14.9445C16.8459 17.3414 17.5373 19.3233 18.8739 20.8905C20.2106 22.4576 22.1926 23.1951 24.6816 23.1951C27.1706 23.1951 29.1987 22.4115 30.6736 20.7983C32.1486 19.2312 32.84 17.2492 32.84 14.8524C32.84 12.4555 32.1486 10.4736 30.8119 8.90642C29.4752 7.33927 27.4933 6.60179 25.0043 6.60179C22.5153 6.60179 20.4872 7.38536 19.0122 8.9986C17.5373 10.5658 16.8459 12.5477 16.8459 14.9445ZM27.1245 9.68999C27.6776 11.0267 27.9081 12.7782 27.9081 14.8985C27.9081 19.7843 26.8941 22.1811 24.9121 22.1811C23.898 22.1811 23.1145 21.4897 22.5614 20.1069C22.0082 18.7241 21.7778 16.9726 21.7778 14.8985C21.7778 10.0587 22.7918 7.66192 24.7738 7.66192C25.7878 7.61583 26.5714 8.30722 27.1245 9.68999ZM66.0727 20.8905C67.5938 22.4115 69.5297 23.1951 71.8343 23.1951C73.2632 23.1951 74.5077 22.9186 75.6139 22.3194C76.7201 21.7662 77.5959 21.0749 78.1951 20.2452L77.7342 19.6921C76.7201 20.4757 75.5678 20.8444 74.2311 20.8444C72.3874 20.8444 70.9586 20.2452 69.9906 19.0007C68.9766 17.7562 68.5157 16.189 68.6078 14.161H78.4716C78.4716 11.9485 77.9185 10.1509 76.7662 8.72205C75.6139 7.33927 74.0007 6.64788 71.9265 6.64788C69.3453 6.64788 67.3633 7.47755 65.9345 9.09079C64.5056 10.704 63.8142 12.686 63.8142 15.0367C63.8142 17.4335 64.5517 19.3694 66.0727 20.8905ZM69.4836 9.32125C69.9906 8.21503 70.6359 7.66192 71.5117 7.66192C72.8944 7.66192 73.5858 9.41344 73.5858 12.9626L68.7 13.0548C68.7461 11.672 68.9766 10.4275 69.4836 9.32125ZM90.8706 7.47755C89.626 6.92444 88.0589 6.60179 86.1691 6.60179C84.2332 6.60179 82.7122 7.10881 81.5599 8.07675C80.4075 9.0447 79.8083 10.2431 79.8083 11.672C79.8083 12.9165 80.1771 13.8844 80.8685 14.5758C81.5599 15.2672 82.6661 15.8664 84.0949 16.3734C85.3855 16.8343 86.3074 17.2953 86.7683 17.7101C87.2292 18.171 87.5058 18.678 87.5058 19.3694C87.5058 20.0147 87.2753 20.6139 86.7683 21.0749C86.3074 21.5819 85.6621 21.8123 84.8324 21.8123C82.8044 21.8123 81.2833 20.3374 80.2232 17.3875L79.4396 17.6179L79.624 22.2272C81.2833 22.8725 83.127 23.1951 85.1551 23.1951C87.2753 23.1951 88.8886 22.7342 90.087 21.7662C91.2854 20.8444 91.8846 19.5077 91.8846 17.8484C91.8846 16.7422 91.608 15.8203 91.0088 15.1289C90.4096 14.4375 89.4417 13.8383 88.0589 13.2852C86.5378 12.7321 85.4777 12.2251 84.9246 11.7642C84.3715 11.3032 84.0949 10.7501 84.0949 10.0587C84.0949 9.36735 84.2793 8.81423 84.6941 8.35331C85.109 7.89238 85.616 7.70801 86.2613 7.70801C88.105 7.70801 89.4417 9.0447 90.2713 11.672L91.0549 11.4415L90.8706 7.47755ZM46.5295 7.06272C45.8842 6.74007 45.1928 6.60179 44.4092 6.60179C43.6257 6.60179 42.8421 6.92444 41.9663 7.56973C41.0906 8.21503 40.4453 9.09079 39.9383 10.2892L39.9843 6.60179L32.9783 7.98457V8.62986L33.6697 8.67596C34.5454 8.76814 35.0524 9.45953 35.1446 10.704C35.4212 13.5618 35.4212 16.6039 35.1446 19.8304C35.0524 21.0749 34.5454 21.7202 33.6697 21.8584L32.9783 21.9506V22.8264H42.7499V21.9506L41.5054 21.8584C40.6296 21.7662 40.1226 21.0749 40.0304 19.8304C39.7539 17.157 39.7078 14.2992 39.9383 11.3493C40.2148 10.8884 40.814 10.6118 41.7359 10.5197C42.6577 10.4275 43.7178 10.704 44.8241 11.3493L46.5295 7.06272Z" fill="#092347"/>
</svg>
