<svg width="73" height="26" viewBox="0 0 73 26" fill="none" xmlns="http://www.w3.org/2000/svg">
<g clip-path="url(#clip0_2719_2263)">
<path d="M0.544371 0.432617C0.655559 0.436949 0.768192 0.447057 0.87938 0.447057C6.30884 0.447057 11.7397 0.447057 17.1692 0.447057C17.2789 0.447057 17.3901 0.455721 17.5129 0.461497V6.07867C17.4132 6.08734 17.3121 6.10322 17.2111 6.10466C16.3533 6.10611 15.4941 6.10466 14.6364 6.10466C14.313 6.10466 14.3057 6.109 14.3057 6.41946C14.3057 10.623 14.3057 14.825 14.3014 19.0285C14.3014 19.2422 14.3563 19.3216 14.5844 19.3187C15.4667 19.3072 16.349 19.3202 17.2313 19.3086C17.4667 19.3057 17.5316 19.3837 17.5302 19.6148C17.5215 21.1541 17.5259 22.6948 17.5259 24.2341C17.5259 24.4613 17.4142 24.5749 17.1909 24.5749C11.7527 24.5749 6.31461 24.5749 0.876492 24.5749C0.765304 24.5749 0.652671 24.5865 0.541483 24.5922C0.541483 22.8277 0.541483 21.0617 0.541483 19.2971H3.7154V18.9794C3.7154 15.4344 3.7154 11.8879 3.7154 8.34287C3.7154 7.66852 3.71107 6.99562 3.71829 6.32127C3.71974 6.1552 3.67064 6.09745 3.50025 6.09889C2.51399 6.10755 1.52774 6.10611 0.540039 6.10755V0.432617H0.544371Z" fill="#092347"/>
<path d="M72.7455 22.2372C72.718 22.2747 72.6761 22.3094 72.6675 22.3512C72.3989 23.5873 71.609 24.3136 70.4177 24.6357C69.3275 24.9302 67.9254 24.3497 67.3102 23.3837C66.8207 22.6155 66.7023 21.791 66.9391 20.9318C67.2366 19.8517 68.2026 18.9939 69.3549 18.851C70.4249 18.7181 71.313 19.0459 72.0278 19.843C72.3498 20.2026 72.5736 20.6213 72.6603 21.1036C72.6689 21.1484 72.7166 21.1859 72.7455 21.2264V22.2372Z" fill="#092347"/>
<path d="M43.9616 19.1981H45.9298C45.8807 19.061 45.8403 18.944 45.7984 18.8285C45.3406 17.5693 45.1789 16.2625 45.2829 14.9354C45.5052 12.0835 46.8121 9.85831 49.2178 8.28868C50.1477 7.6822 51.1527 7.23023 52.2098 6.9111C52.9014 6.70316 53.6177 6.57032 54.3296 6.43891C55.788 6.16888 57.2652 6.15444 58.7323 6.2844C59.567 6.35949 60.3929 6.57754 61.2131 6.77536C62.081 6.9833 62.8824 7.36885 63.6405 7.8396C65.2664 8.84751 66.3437 10.2814 66.8953 12.1023C67.0686 12.6756 67.1538 13.2763 67.2823 13.877C67.0209 13.9217 66.8274 13.9651 66.631 13.9867C66.218 14.0329 65.8036 14.0633 65.3921 14.108C64.4852 14.2062 63.5784 14.3116 62.6716 14.4113C62.3929 14.4416 62.1142 14.4705 61.8369 14.4979C61.2579 14.5557 60.6788 14.6134 60.0767 14.6741C60.0435 14.316 60.0218 13.9882 59.9799 13.6647C59.9005 13.0467 59.7735 12.4402 59.4615 11.8886C59.1063 11.2619 58.5879 10.8373 57.8775 10.7132C57.0298 10.5644 56.188 10.5904 55.401 11.0106C54.7801 11.3413 54.4046 11.8727 54.162 12.5153C53.7635 13.5752 53.7982 14.6856 53.7996 15.7888C53.7996 16.4372 53.8256 17.0899 53.9108 17.731C54.0335 18.6537 54.3223 19.5187 55.1122 20.1151C55.4934 20.4024 55.9295 20.5396 56.4003 20.6263C57.193 20.7721 57.9497 20.6941 58.6717 20.3577C59.5352 19.9562 60.0377 19.2646 60.1431 18.3144C60.2067 17.7368 60.1706 17.8234 60.6918 17.822C62.8015 17.8191 64.9112 17.822 67.0209 17.822C67.3617 17.822 67.3689 17.822 67.34 18.1541C67.2693 18.983 66.9935 19.7555 66.6397 20.4992C65.896 22.0645 64.7004 23.1908 63.1582 23.9417C62.3568 24.3316 61.5034 24.5857 60.6225 24.7662C59.193 25.0593 57.7533 25.1474 56.3035 25.0954C55.6566 25.0723 55.0053 25.0189 54.3685 24.9077C53.6249 24.7792 52.8798 24.6189 52.1607 24.3908C50.1506 23.7554 48.3629 22.7562 47.0359 21.0638C46.7601 20.7114 46.5233 20.3288 46.2431 19.923C46.2301 20.0414 46.2114 20.1353 46.2114 20.2291C46.2099 21.5605 46.2041 22.8919 46.2157 24.2247C46.2171 24.4731 46.1363 24.5381 45.8995 24.5381C41.7277 24.5323 37.556 24.5337 33.3857 24.5381C33.1879 24.5381 33.1056 24.4976 33.107 24.2738C33.1171 22.6695 33.1114 21.0652 33.1128 19.4609C33.1128 19.3887 33.1186 19.318 33.1229 19.2169H35.5618C35.5691 19.1187 35.5777 19.0494 35.5777 18.9801C35.5777 17.2227 35.5806 15.4668 35.5777 13.7095C35.5777 13.1362 35.4391 12.6048 35.068 12.1499C34.7171 11.7196 34.2507 11.4871 33.7222 11.3659C33.12 11.2258 32.5135 11.2186 31.9128 11.3687C30.7432 11.6604 29.9302 12.3622 29.5172 13.5073C29.3497 13.9723 29.3223 14.4531 29.3252 14.9427C29.3324 16.274 29.3281 17.6054 29.3281 18.9382V19.2544H31.8652V24.5626C31.7583 24.5684 31.6645 24.5785 31.5706 24.5785C27.3036 24.5785 23.0351 24.577 18.7681 24.5857C18.5154 24.5857 18.4605 24.5063 18.4619 24.2738C18.4706 22.7013 18.4706 21.1288 18.4619 19.5562C18.4619 19.3281 18.5269 19.2443 18.7609 19.2501C19.3702 19.2617 19.9796 19.2501 20.5904 19.2559C20.8012 19.2588 20.8806 19.1952 20.8806 18.9656C20.872 16.495 20.872 14.0243 20.8806 11.5536C20.8806 11.3124 20.8012 11.259 20.5774 11.2633C19.9767 11.2778 19.3746 11.2677 18.7724 11.2677C18.6858 11.2677 18.5991 11.2677 18.4923 11.2677C18.4836 11.1493 18.4692 11.0554 18.4692 10.9615C18.4692 9.38901 18.472 7.81649 18.4634 6.24397C18.4634 6.01004 18.5226 5.92773 18.7738 5.92773C22.0864 5.9364 25.4004 5.93351 28.7129 5.93351C29.0234 5.93351 29.0248 5.93351 29.0263 6.2613C29.0263 7.24755 29.0263 8.23525 29.0277 9.22151C29.0277 9.32114 29.0436 9.42222 29.0566 9.59262C29.1793 9.47565 29.2616 9.41067 29.3295 9.3327C30.066 8.48362 30.8775 7.72408 31.8767 7.18546C32.5092 6.84468 33.1763 6.60353 33.8752 6.4288C35.1662 6.10535 36.4773 6.09091 37.7856 6.19054C38.9625 6.28007 40.1104 6.54288 41.166 7.11759C42.4338 7.80783 43.2858 8.83018 43.6901 10.2193C43.8894 10.9052 43.9688 11.6056 43.9659 12.3218C43.9587 14.5109 43.963 16.7014 43.963 18.8906C43.963 18.9859 43.963 19.0797 43.963 19.1967L43.9616 19.1981Z" fill="#092347"/>
</g>
<defs>
<clipPath id="clip0_2719_2263">
<rect width="72.2002" height="24.6766" fill="white" transform="translate(0.545898 0.43457)"/>
</clipPath>
</defs>
</svg>
