<svg width="140" height="22" viewBox="0 0 140 22" fill="none" xmlns="http://www.w3.org/2000/svg">
<g clip-path="url(#clip0_2719_2234)">
<path d="M21.5093 10.7732C21.5093 16.5198 16.8522 21.1783 11.1061 21.1783C5.36123 21.1783 0.704102 16.5198 0.704102 10.7732C0.704102 5.02665 5.36123 0.368164 11.1061 0.368164C16.8522 0.368164 21.5093 5.02665 21.5093 10.7732Z" fill="#092347"/>
<path d="M31.2311 15.2398C29.5937 15.2398 28.6799 14.2375 28.6799 12.4697V3.49609H24.6211V12.4465C24.6211 16.3765 27.0192 18.6223 31.2311 18.6223C35.4429 18.6223 37.841 16.3765 37.841 12.4465V3.49609H33.7823V12.4697C33.7823 14.2375 32.8685 15.2398 31.2311 15.2398Z" fill="#092347"/>
<path d="M45.0045 18.6202C48.5623 18.6202 50.8955 16.7224 50.8955 13.906C50.8955 11.8969 49.6941 10.3472 46.5074 9.47485L45.3942 9.16861C43.8031 8.73246 43.214 8.25454 43.214 7.55391C43.214 6.81152 43.8681 6.39857 45.0231 6.39857C46.4239 6.39857 47.9268 7.18272 48.9751 8.07823L51.0022 5.52626C49.4112 4.08324 47.2728 3.21094 45.0045 3.21094C41.5766 3.21094 39.1785 5.06691 39.1785 7.92512C39.1785 10.1291 40.6164 11.5721 43.279 12.2681L44.1974 12.5094C46.1827 13.0337 46.8599 13.4281 46.8599 14.2122C46.8599 15.0196 46.1595 15.4325 44.9813 15.4325C43.2372 15.4325 41.7946 14.8015 40.6164 13.7529L38.6543 16.2213C40.2917 17.7478 42.5832 18.6202 45.0045 18.6202Z" fill="#092347"/>
<path d="M62.479 18.3392H66.6073L61.1709 3.49609H56.4581L51.0264 18.3392H55.0387L55.9804 15.5692H61.542L62.479 18.3392ZM57.0055 12.5532L58.7728 7.36116L60.5169 12.5532H57.0055Z" fill="#092347"/>
<path d="M74.4369 18.3392H78.4957V6.77188H82.907V3.49609H70.0303V6.77188H74.4369V18.3392Z" fill="#092347"/>
<path d="M90.5094 18.6202C94.9578 18.6202 98.2094 15.4557 98.2094 10.9364C98.2094 6.42177 94.9578 3.21094 90.5094 3.21094C86.0563 3.21094 82.8047 6.42177 82.8047 10.9364C82.8047 15.4557 86.0563 18.6202 90.5094 18.6202ZM90.5094 15.2608C88.3942 15.2608 86.9284 13.5116 86.9284 10.9364C86.9284 8.36126 88.3942 6.57489 90.5094 6.57489C92.6246 6.57489 94.0857 8.36126 94.0857 10.9364C94.0857 13.5116 92.6246 15.2608 90.5094 15.2608Z" fill="#092347"/>
<path d="M99.6143 18.3392H105.459C109.847 18.3392 112.969 15.2815 112.969 10.92C112.969 6.55381 109.847 3.49609 105.459 3.49609H99.6143V18.3392ZM103.608 15.133V6.70692H105.459C107.597 6.70692 108.91 8.38658 108.91 10.92C108.91 13.4488 107.597 15.133 105.459 15.133H103.608Z" fill="#092347"/>
<path d="M123.671 18.3392H127.8L122.363 3.49609H117.651L112.219 18.3392H116.231L117.173 15.5692H122.734L123.671 18.3392ZM118.198 12.5532L119.965 7.36116L121.709 12.5532H118.198Z" fill="#092347"/>
<path d="M134.41 12.994L139.666 3.49609H135.087L132.36 9.3888L129.609 3.49609H125.026L130.287 12.994V18.3392H134.41V12.994Z" fill="#092347"/>
</g>
<defs>
<clipPath id="clip0_2719_2234">
<rect width="138.961" height="20.8101" fill="white" transform="translate(0.704102 0.368164)"/>
</clipPath>
</defs>
</svg>
