<svg width="153" height="26" viewBox="0 0 153 26" fill="none" xmlns="http://www.w3.org/2000/svg">
<path d="M152.547 15.5324C152.547 18.4285 150.209 20.1555 146.596 20.1555C144.284 20.1555 142.026 19.4913 140.432 18.3488L142.345 14.9744C143.647 15.7981 145.32 16.3295 146.622 16.3295C147.34 16.3295 147.738 16.1701 147.738 15.7715C147.738 15.3995 147.34 15.2667 146.33 15.0276L145.639 14.8682C142.504 14.1508 141.122 12.9286 141.122 10.6702C141.122 7.93349 143.381 6.15332 146.835 6.15332C148.775 6.15332 150.555 6.68471 152.415 7.72093L150.741 11.1218C149.359 10.3779 147.951 9.9262 146.888 9.9262C146.171 9.9262 145.905 10.0856 145.905 10.4576C145.905 10.7764 146.304 10.8827 147.393 11.175L148.11 11.361C151.219 12.1581 152.547 13.46 152.547 15.5324Z" fill="#092347"/>
<path d="M136.393 19.7838H132.248L129.91 12.6897L127.598 19.7838H123.453L118.937 6.49902H123.852L125.924 13.4071L128.183 6.49902H131.77L134.001 13.4071L136.101 6.49902H140.91L136.393 19.7838Z" fill="#092347"/>
<path d="M114.077 15.1075L118.248 16.5688C117.159 18.8538 114.9 20.1557 111.898 20.1557C107.62 20.1557 104.671 17.3128 104.671 13.1413C104.671 9.12932 107.726 6.12695 111.738 6.12695C115.883 6.12695 118.673 8.99647 118.673 13.3805C118.673 13.8056 118.647 14.1244 118.62 14.3635H109.427C109.533 15.506 110.596 16.2765 111.871 16.2765C112.934 16.2765 113.572 15.9046 114.077 15.1075ZM109.453 11.5737H113.97C113.864 10.5641 112.961 9.8467 111.712 9.8467C110.49 9.8467 109.56 10.5906 109.453 11.5737Z" fill="#092347"/>
<path d="M94.6747 12.7162V19.7837H89.8125V6.49893H94.6747V8.11967C95.4187 6.81776 96.7472 6.12695 98.3679 6.12695C101.211 6.12695 102.991 8.11967 102.991 11.3346V19.7837H98.1288V12.6631C98.1288 11.308 97.4911 10.5641 96.4283 10.5641C95.3656 10.5641 94.6747 11.3346 94.6747 12.7162Z" fill="#092347"/>
<path d="M32.7681 10.2424C32.7681 7.07216 32.7681 3.90268 32.7681 0.732435C32.7681 0.551437 32.8561 0.460938 33.032 0.460938C34.4311 0.460938 35.8302 0.460938 37.2293 0.460938C37.4796 0.460938 37.4811 0.461694 37.4811 0.712016C37.4811 2.88626 37.4811 5.06051 37.4811 7.23476C37.4811 7.29148 37.4705 7.35122 37.4842 7.40416C37.5046 7.48432 37.5424 7.5607 37.5726 7.6386C37.6377 7.60003 37.7125 7.57281 37.7647 7.52138C38.2011 7.09334 38.6866 6.74092 39.2682 6.53749C39.5049 6.45505 39.7491 6.3938 39.9889 6.31893C40.6529 6.11095 41.3343 6.21229 42.0043 6.24179C42.3106 6.2554 42.6176 6.4059 42.9103 6.52917C43.2226 6.66076 43.5342 6.80898 43.8156 6.99578C44.0409 7.14552 44.23 7.355 44.416 7.55541C44.6906 7.85035 44.9008 8.1884 45.0853 8.54989C45.291 8.95374 45.4271 9.37195 45.5292 9.81058C45.6495 10.3256 45.7198 10.8414 45.7191 11.3707C45.7153 14.1818 45.7168 16.992 45.7213 19.803C45.7213 19.9747 45.6737 20.0284 45.499 20.0276C44.0682 20.0216 42.6381 20.0246 41.2072 20.0239C40.9599 20.0239 40.9599 20.0216 40.9599 19.7698C40.9577 17.2681 40.9629 14.7663 40.9471 12.2646C40.9433 11.7111 40.7111 11.2248 40.28 10.8633C40.0418 10.6636 39.7643 10.5555 39.4353 10.5479C39.0042 10.5381 38.6102 10.6084 38.2691 10.8814C37.9682 11.1227 37.7435 11.4312 37.6619 11.8048C37.5719 12.217 37.491 12.6413 37.4879 13.061C37.4713 15.2919 37.4804 17.5229 37.4796 19.7539C37.4796 20.0231 37.4789 20.0239 37.2089 20.0239C35.8158 20.0239 34.4236 20.0239 33.0305 20.0239C32.8546 20.0239 32.7666 19.9334 32.7666 19.7524C32.7666 16.5821 32.7666 13.4126 32.7666 10.2424H32.7681Z" fill="#092347"/>
<path d="M0.783519 6.4831C0.975609 6.47478 1.12535 6.46193 1.27584 6.46193C2.76265 6.46041 4.25021 6.46117 5.73702 6.46117C6.02062 6.46117 6.03196 6.48764 6.12574 6.75006C6.23767 7.06164 6.38589 7.36036 6.50765 7.66892C6.60218 7.90714 6.67478 8.15443 6.76705 8.39341C6.85629 8.62407 6.96367 8.84793 7.05443 9.07783C7.14291 9.30168 7.21627 9.53083 7.30324 9.75468C7.39474 9.98912 7.49759 10.219 7.59137 10.452C7.64582 10.5866 7.69195 10.725 7.74338 10.8611C7.82884 11.088 7.91278 11.3148 8.00278 11.5395C8.09126 11.7618 8.18655 11.9819 8.2773 12.2042C8.38317 12.4628 8.49359 12.7207 8.5919 12.9824C8.6819 13.2206 8.75299 13.4656 8.84298 13.7039C8.91483 13.8929 9.00255 14.0767 9.10162 14.3059C9.16212 14.2499 9.23775 14.2121 9.26044 14.1531C9.38597 13.8287 9.48883 13.4944 9.6189 13.1715C9.81477 12.6837 10.0311 12.2042 10.2284 11.7172C10.3245 11.4797 10.3895 11.2301 10.4833 10.9919C10.5741 10.7628 10.6883 10.5427 10.7828 10.3151C10.8675 10.1101 10.9371 9.89913 11.0187 9.69342C11.114 9.45369 11.2199 9.21849 11.3129 8.97876C11.4044 8.74129 11.4808 8.49778 11.5731 8.26031C11.6593 8.03873 11.7614 7.82319 11.8514 7.60312C11.9399 7.38608 12.0238 7.16676 12.1062 6.94744C12.1516 6.82644 12.1652 6.682 12.2416 6.58671C12.3006 6.51335 12.4337 6.46571 12.5343 6.46495C13.6052 6.45663 14.6768 6.45966 15.7476 6.45966C16.2014 6.45966 16.6551 6.45814 17.1089 6.45966C17.3116 6.46041 17.3668 6.56931 17.2775 6.75006C17.177 6.95501 17.0938 7.16752 17.0023 7.377C16.8964 7.61976 16.7867 7.86101 16.6869 8.10679C16.5629 8.41232 16.4532 8.7239 16.3269 9.02867C16.2029 9.32966 16.063 9.62385 15.9367 9.92408C15.88 10.0587 15.8391 10.2001 15.7885 10.3378C15.7514 10.4383 15.7121 10.5374 15.6705 10.6365C15.4913 11.0653 15.3135 11.4948 15.1305 11.9229C14.9256 12.4031 14.71 12.8788 14.5096 13.3598C14.3818 13.6668 14.2797 13.9852 14.1519 14.2922C14.0271 14.591 13.8751 14.8783 13.7488 15.1763C13.6241 15.4705 13.5197 15.7738 13.3987 16.0702C13.3026 16.3054 13.19 16.5338 13.0932 16.769C13.0047 16.983 12.9306 17.2023 12.8436 17.4171C12.7286 17.7022 12.6061 17.9843 12.4889 18.2679C12.4269 18.4192 12.3702 18.5719 12.3097 18.7239C12.2673 18.8298 12.2227 18.9342 12.1773 19.0393C12.0367 19.3645 11.8945 19.6882 11.7553 20.0141C11.6661 20.2228 11.5784 20.4331 11.4929 20.6433C11.3991 20.874 11.3091 21.1061 11.2146 21.3368C11.1292 21.5455 11.0414 21.7535 10.9545 21.9615C10.8622 22.1823 10.7707 22.4031 10.6762 22.6224C10.5778 22.8501 10.4727 23.0747 10.3774 23.3031C10.2882 23.5171 10.2118 23.7364 10.1226 23.9504C9.9993 24.2439 9.86923 24.5343 9.74293 24.8262C9.72554 24.8655 9.72705 24.9184 9.69982 24.9472C9.63781 25.013 9.56899 25.0773 9.4911 25.1211C9.44799 25.1453 9.37992 25.1264 9.32321 25.1264C7.81069 25.1264 6.29892 25.1264 4.7864 25.1264H4.51642C4.69868 24.6795 4.86505 24.2529 5.0458 23.8325C5.24016 23.3787 5.45342 22.9325 5.64854 22.4788C5.78164 22.1694 5.8913 21.8503 6.02213 21.5395C6.10305 21.3466 6.20666 21.1629 6.29212 20.9723C6.38514 20.7651 6.47513 20.5556 6.55605 20.3431C6.64756 20.1041 6.49555 19.9075 6.41992 19.7025C6.33144 19.4628 6.22178 19.2314 6.12044 18.9962C5.95634 18.6158 5.79072 18.2361 5.62812 17.8542C5.53737 17.6402 5.45418 17.4224 5.36267 17.2091C5.26814 16.9876 5.16605 16.769 5.07 16.5482C4.98681 16.3568 4.90816 16.1625 4.82573 15.9711C4.72817 15.7458 4.62532 15.5227 4.53154 15.2966C4.43928 15.0742 4.36138 14.8466 4.26685 14.6258C4.10577 14.2476 3.93334 13.874 3.7715 13.4959C3.67848 13.2773 3.59983 13.0527 3.50908 12.8334C3.39035 12.546 3.26708 12.2609 3.14456 11.9758C3.01373 11.671 2.88517 11.3655 2.74904 11.0623C2.65072 10.8429 2.53577 10.6312 2.43897 10.4111C2.35351 10.2152 2.28848 10.0111 2.20529 9.81443C2.0737 9.50436 1.92925 9.19959 1.79918 8.88952C1.70767 8.67096 1.63582 8.44408 1.54507 8.22401C1.42861 7.94117 1.30156 7.66211 1.18131 7.38078C1.08527 7.15617 0.995272 6.92929 0.899227 6.70544C0.871245 6.6404 0.833432 6.57915 0.78125 6.48083L0.783519 6.4831Z" fill="#092347"/>
<path d="M89.7913 0.460267C89.6726 0.755208 89.5705 1.01536 89.4631 1.27325C89.3784 1.47668 89.2861 1.67785 89.1976 1.87977C89.1492 1.99094 89.0971 2.10059 89.0524 2.21328C88.8944 2.61561 88.7447 3.02248 88.5798 3.42178C88.4217 3.80445 88.2425 4.17728 88.0829 4.5592C87.9536 4.86851 87.8462 5.18689 87.7169 5.4962C87.5944 5.79039 87.4499 6.0755 87.3267 6.36968C87.2314 6.59807 87.1603 6.83554 87.0673 7.06544C86.9856 7.26887 86.8843 7.4655 86.8003 7.66818C86.671 7.98127 86.5523 8.29814 86.4229 8.61048C86.3307 8.83282 86.2255 9.04911 86.131 9.26994C86.0425 9.47867 85.9639 9.69117 85.8754 9.8999C85.7446 10.21 85.6054 10.5163 85.4784 10.8271C85.3846 11.0555 85.309 11.2907 85.2182 11.5206C85.1411 11.7149 85.0533 11.9047 84.9724 12.0976C84.9104 12.2451 84.8665 12.4024 84.7864 12.5392C84.741 12.6171 84.6389 12.7139 84.5625 12.7139C82.7543 12.723 80.9453 12.7208 79.1371 12.72C79.1129 12.72 79.0887 12.7117 79.0312 12.7011C79.0766 12.5589 79.1084 12.4198 79.1636 12.2904C79.3269 11.9055 79.5054 11.5266 79.6673 11.1402C79.7936 10.8392 79.8979 10.5291 80.0235 10.2274C80.1513 9.92032 80.298 9.6216 80.4265 9.31531C80.5528 9.01432 80.6602 8.70652 80.7858 8.40553C80.9166 8.09244 81.0633 7.78691 81.1949 7.47382C81.3167 7.18569 81.4241 6.8915 81.5435 6.60261C81.6351 6.38329 81.7409 6.16927 81.8309 5.94996C81.9232 5.7261 82.0011 5.49696 82.0911 5.27235C82.1735 5.0674 82.2673 4.86624 82.3505 4.66205C82.4458 4.42912 82.532 4.19241 82.6295 3.96024C82.7188 3.74924 82.8201 3.54354 82.9116 3.33254C83.0016 3.12381 83.0856 2.91282 83.1718 2.70258C83.2572 2.49234 83.3434 2.28134 83.4274 2.07034C83.5265 1.82153 83.621 1.57121 83.7238 1.32392C83.835 1.05469 83.9507 0.786215 84.071 0.520767C84.0846 0.491273 84.1398 0.470854 84.1783 0.464048C84.2396 0.45346 84.3039 0.457998 84.3667 0.457998C86.0803 0.457998 87.7948 0.457998 89.5085 0.457998H89.7883L89.7913 0.460267Z" fill="#092347"/>
<path d="M83.5932 17.1649C83.5932 17.366 83.625 17.574 83.5857 17.7676C83.5327 18.0217 83.4556 18.2826 83.3308 18.508C83.1561 18.8233 82.9625 19.1432 82.7107 19.3958C82.4604 19.6469 82.1465 19.8511 81.8281 20.0107C81.5211 20.1642 81.1793 20.2746 80.8404 20.3275C80.5553 20.3714 80.2438 20.4304 79.9594 20.2693C79.9284 20.2519 79.886 20.2504 79.849 20.2504C79.4618 20.2443 79.1434 20.0477 78.822 19.87C78.3236 19.5947 77.9629 19.1697 77.671 18.6963C77.5356 18.4762 77.5038 18.1941 77.3972 17.9529C77.2308 17.577 77.2906 17.1853 77.308 16.8034C77.3193 16.5553 77.4138 16.3057 77.5031 16.069C77.5953 15.8248 77.7042 15.5805 77.8472 15.3642C78.0846 15.005 78.3781 14.6919 78.7683 14.4847C78.9422 14.3924 79.1033 14.2752 79.2788 14.1859C79.3922 14.1285 79.5185 14.0838 79.6433 14.0657C79.9518 14.0218 80.2665 13.9515 80.5735 13.9712C81.6436 14.0385 82.5027 14.5225 83.1145 15.4013C83.2915 15.6554 83.4057 15.9556 83.5116 16.2596C83.619 16.5666 83.5653 16.8654 83.594 17.1649H83.5932Z" fill="#092347"/>
<path d="M26.462 18.8352C26.1898 19.0802 25.9576 19.3079 25.7042 19.5098C25.5205 19.6565 25.3178 19.7889 25.1068 19.891C24.8315 20.0241 24.5457 20.1473 24.2507 20.2252C23.9611 20.3016 23.6548 20.3167 23.3561 20.3576C23.195 20.3795 23.0339 20.415 22.8728 20.415C22.6679 20.4143 22.4622 20.3871 22.258 20.3636C21.9018 20.3235 21.5312 20.325 21.1924 20.2237C20.6358 20.0573 20.0958 19.8471 19.5922 19.5317C19.0855 19.2141 18.6514 18.8269 18.2422 18.4026C17.8286 17.9738 17.4882 17.4913 17.2288 16.9529C17.0897 16.6647 16.9437 16.3796 16.8114 16.0877C16.7569 15.9675 16.7176 15.8374 16.6904 15.7081C16.6057 15.3012 16.5482 14.8883 16.4454 14.486C16.3077 13.9437 16.3531 13.3962 16.3728 12.8532C16.3879 12.4267 16.4847 12.0032 16.5543 11.5797C16.589 11.3664 16.6238 11.1501 16.6919 10.9459C16.7751 10.6941 16.8817 10.4483 16.9974 10.2101C17.1661 9.8637 17.3544 9.52641 17.5291 9.18307C17.7408 8.76713 18.0486 8.42 18.3655 8.08876C18.6597 7.78021 18.9781 7.48451 19.3275 7.24175C19.76 6.94152 20.2244 6.68061 20.7402 6.53767C21.0185 6.46053 21.3021 6.40079 21.5796 6.31836C22.2897 6.10812 23.0142 6.21702 23.7297 6.24046C24.0488 6.25105 24.371 6.39625 24.6772 6.51801C25.0055 6.64809 25.3307 6.79934 25.6309 6.98462C25.8865 7.14268 26.1043 7.36275 26.3403 7.55409C26.3705 7.57904 26.4053 7.59871 26.4378 7.62139C26.4582 7.57904 26.4961 7.5382 26.4968 7.4951C26.5036 7.25612 26.5013 7.01639 26.5036 6.77665C26.5059 6.51725 26.5588 6.46205 26.8114 6.46205C28.1409 6.46205 29.4704 6.46205 30.7999 6.46205C31.0381 6.46205 31.0518 6.47566 31.0518 6.72371C31.0518 8.8851 31.0518 11.0465 31.0518 13.2079C31.0518 15.3942 31.0518 17.5813 31.0518 19.7677C31.0518 20.0241 31.0518 20.0248 30.7924 20.0248C29.45 20.0248 28.1076 20.0248 26.766 20.0248C26.5104 20.0248 26.5044 20.018 26.5036 19.7571C26.5036 19.5363 26.5066 19.3162 26.5013 19.0954C26.4991 19.0129 26.4779 18.9305 26.4635 18.836L26.462 18.8352ZM26.4817 12.5318C26.4242 12.1953 26.2714 11.9026 26.0695 11.6356C25.7186 11.1735 25.3102 10.781 24.7173 10.6517C24.3929 10.5814 24.0669 10.5103 23.7387 10.4672C23.6253 10.4521 23.502 10.53 23.381 10.5474C23.1874 10.5746 22.9999 10.5822 22.8032 10.6479C22.3517 10.8 21.9804 11.0427 21.6688 11.3913C21.3973 11.6954 21.2491 12.0584 21.1039 12.4373C20.9859 12.7458 20.9928 13.0589 20.9867 13.3554C20.9791 13.7237 20.9927 14.123 21.2317 14.458C21.386 14.6743 21.4881 14.9322 21.6583 15.1333C21.9676 15.4994 22.3563 15.758 22.8191 15.9168C23.111 16.0174 23.3977 16.1195 23.7077 16.1187C23.9361 16.1187 24.163 16.1437 24.3899 16.034C24.5714 15.9463 24.8013 15.9614 24.985 15.8775C25.4736 15.6536 25.8759 15.3156 26.1557 14.8505C26.4424 14.3756 26.6193 13.8658 26.6307 13.2911C26.5808 13.0377 26.5263 12.7851 26.4824 12.5303L26.4817 12.5318Z" fill="#092347"/>
<path d="M61.3053 13.3612C61.2592 13.827 61.2539 14.302 61.1563 14.7572C61.0429 15.2851 60.8788 15.8009 60.6647 16.3053C60.2201 17.3535 59.5152 18.1929 58.644 18.8909C58.2152 19.2343 57.741 19.533 57.2109 19.7198C56.9281 19.8196 56.6528 19.9406 56.3669 20.0284C56.075 20.1176 55.7627 20.1494 55.4798 20.2583C55.1176 20.3982 54.7425 20.2999 54.3855 20.3725C53.8614 20.4791 53.351 20.3233 52.8322 20.3346C52.5856 20.3399 52.3361 20.2167 52.0872 20.1509C51.933 20.11 51.7795 20.0669 51.6252 20.0276C51.1835 19.9157 50.7835 19.7107 50.3789 19.5058C49.575 19.0974 48.8989 18.5363 48.337 17.8435C48.0511 17.4911 47.8219 17.0903 47.589 16.6978C47.4287 16.4278 47.2948 16.1404 47.1716 15.8515C47.1035 15.6912 47.0823 15.5112 47.0392 15.3395C46.9795 15.1066 46.919 14.8744 46.8585 14.6423C46.8509 14.612 46.8365 14.5818 46.8343 14.5508C46.8025 14.1257 46.7488 13.7 46.7481 13.275C46.7473 12.8938 46.7897 12.5104 46.8418 12.1315C46.8736 11.9008 46.9598 11.6785 47.0188 11.4516C47.0664 11.2694 47.1012 11.0826 47.1587 10.9033C47.2298 10.684 47.3009 10.4617 47.4037 10.2567C47.5595 9.94439 47.7335 9.63961 47.9165 9.34165C48.2538 8.7926 48.6697 8.29877 49.1545 7.88207C49.5205 7.56746 49.9584 7.33529 50.3683 7.07136C50.7547 6.8233 51.1797 6.66449 51.6176 6.5329C51.9383 6.4361 52.265 6.37787 52.5909 6.30602C53.4213 6.12225 54.2539 6.2304 55.0843 6.23493C55.3422 6.23645 55.6008 6.34988 55.8572 6.41795C56.1264 6.48904 56.3979 6.55407 56.6604 6.64483C56.9129 6.73331 57.161 6.8407 57.4015 6.95943C57.6753 7.0948 57.943 7.24605 58.2061 7.4026C58.6274 7.65292 59.007 7.96147 59.3254 8.33204C59.6544 8.71547 59.9849 9.10343 60.2617 9.52391C60.4681 9.83851 60.5982 10.2053 60.7464 10.5547C60.8591 10.8209 60.9567 11.0947 61.0429 11.3707C61.1019 11.5598 61.1435 11.7564 61.1669 11.953C61.2221 12.4181 61.2614 12.8855 61.3083 13.3574L61.3053 13.3612ZM54.0202 10.5116C53.7548 10.5615 53.4901 10.6205 53.2224 10.6598C52.8987 10.7075 52.6212 10.861 52.3754 11.0561C51.9451 11.3979 51.6267 11.8161 51.4679 12.3674C51.3839 12.6594 51.3174 12.9543 51.2947 13.2462C51.2697 13.5699 51.3794 13.8921 51.4679 14.2135C51.5533 14.5213 51.6948 14.7867 51.8838 15.0242C52.2211 15.4484 52.6242 15.7956 53.177 15.9188C53.4387 15.9771 53.6958 16.0898 53.9582 16.1019C54.2812 16.1162 54.6079 16.0565 54.9096 15.9151C55.1191 15.8167 55.3437 15.7434 55.5373 15.6201C56.0016 15.3259 56.3215 14.9055 56.5492 14.4056C56.7201 14.032 56.8108 13.6417 56.8184 13.2364C56.8214 13.0715 56.767 12.9044 56.7292 12.7403C56.6883 12.5656 56.6528 12.3864 56.5825 12.2222C56.4395 11.8895 56.2263 11.6006 55.9699 11.3427C55.4957 10.8655 54.9429 10.563 54.2539 10.5562C54.1783 10.5554 54.1027 10.5562 54.0271 10.5562C54.024 10.5411 54.0218 10.5267 54.0187 10.5116H54.0202Z" fill="#092347"/>
<path d="M69.3156 6.22456C69.6559 6.22456 69.9977 6.20112 70.3358 6.23137C70.6163 6.25633 70.8916 6.34178 71.1676 6.40531C71.3484 6.4469 71.5291 6.49152 71.7061 6.54673C71.9541 6.62311 72.206 6.69344 72.4427 6.7963C72.7044 6.91049 72.9562 7.04964 73.2027 7.19409C73.4493 7.33929 73.7056 7.4792 73.9182 7.66675C74.3401 8.04034 74.7523 8.4283 75.1327 8.84349C75.3467 9.07717 75.5048 9.36758 75.6598 9.64891C75.8444 9.98317 76.0069 10.3303 76.1612 10.6797C76.23 10.8355 76.2565 11.0109 76.3042 11.1766C76.3669 11.3921 76.4312 11.6069 76.4955 11.8224C76.5023 11.8466 76.5144 11.87 76.5152 11.8942C76.5499 12.5764 76.6951 13.2525 76.6248 13.9392C76.5946 14.2303 76.5817 14.5275 76.5099 14.8096C76.3102 15.5939 76.072 16.3698 75.6402 17.0618C75.2068 17.7568 74.6752 18.3739 74.0119 18.8609C73.6905 19.0969 73.3479 19.3063 72.997 19.4969C72.6484 19.6867 72.2877 19.8645 71.9148 19.9961C71.5753 20.1163 71.2017 20.139 70.8598 20.2555C70.4477 20.3961 70.0242 20.3076 69.6143 20.3757C69.122 20.4574 68.6432 20.3281 68.1562 20.3349C67.9165 20.3379 67.6752 20.2161 67.4347 20.1518C67.2744 20.1087 67.1095 20.0792 66.9545 20.0218C66.6225 19.8977 66.289 19.7745 65.9691 19.6232C65.659 19.4773 65.3497 19.3192 65.0684 19.1256C64.775 18.9237 64.4884 18.6983 64.2456 18.4397C63.8675 18.0373 63.4946 17.6214 63.1853 17.1669C62.9403 16.8069 62.7837 16.3842 62.6083 15.9803C62.485 15.6982 62.3791 15.4056 62.296 15.1091C62.2309 14.8784 62.2037 14.6349 62.1742 14.396C62.1417 14.135 62.1167 13.8726 62.1046 13.6102C62.0978 13.4559 62.1243 13.3001 62.1326 13.1443C62.147 12.8865 62.1387 12.6263 62.1757 12.3722C62.2196 12.0697 62.2982 11.7725 62.3678 11.4745C62.4033 11.3202 62.4434 11.1667 62.4956 11.017C62.6068 10.6986 62.7021 10.3711 62.8518 10.0709C63.0257 9.72302 63.2337 9.38875 63.4568 9.06886C63.8085 8.56519 64.201 8.09252 64.7092 7.73406C65.0654 7.48298 65.4155 7.2198 65.7906 7.00124C66.0515 6.84923 66.3472 6.7547 66.6331 6.64958C66.9333 6.53992 67.2396 6.44766 67.5436 6.34859C67.561 6.34254 67.5807 6.34178 67.5996 6.33951C68.1698 6.28053 68.7408 6.22229 69.311 6.16406C69.3125 6.18373 69.314 6.20414 69.3156 6.22381V6.22456ZM72.0827 12.8055C72.0661 12.4985 71.9504 12.2247 71.7984 11.9782C71.6297 11.7037 71.4134 11.4533 71.1918 11.2166C70.8621 10.865 70.4242 10.6457 69.9682 10.5844C69.4018 10.5073 68.8195 10.4989 68.2606 10.7508C67.8651 10.9285 67.5361 11.169 67.2714 11.4972C67.0672 11.7513 66.9144 12.0334 66.8207 12.3593C66.7246 12.6936 66.6618 13.0286 66.6376 13.3712C66.6286 13.4998 66.6951 13.6336 66.7239 13.7652C66.7692 13.9732 66.7798 14.1955 66.8607 14.3884C67.0385 14.8134 67.2963 15.1923 67.6692 15.4744C67.9218 15.665 68.1721 15.8586 68.5026 15.916C68.7658 15.9622 69.0199 16.0801 69.283 16.1028C69.6218 16.1323 69.9569 16.0537 70.2715 15.9115C70.4772 15.8185 70.6912 15.7398 70.884 15.6249C71.2849 15.3844 71.5556 15.0244 71.7931 14.6259C72.0373 14.2167 72.0903 13.7637 72.1939 13.3032C72.1561 13.1413 72.091 12.9749 72.082 12.8063L72.0827 12.8055Z" fill="#092347"/>
</svg>
